<?xml version="1.0" encoding="UTF-8" standalone="no"?>
<!-- Created with Inkscape (http://www.inkscape.org/) -->

<svg
   xmlns:dc="http://purl.org/dc/elements/1.1/"
   xmlns:cc="http://creativecommons.org/ns#"
   xmlns:rdf="http://www.w3.org/1999/02/22-rdf-syntax-ns#"
   xmlns:svg="http://www.w3.org/2000/svg"
   xmlns="http://www.w3.org/2000/svg"
   xmlns:xlink="http://www.w3.org/1999/xlink"
   xmlns:sodipodi="http://sodipodi.sourceforge.net/DTD/sodipodi-0.dtd"
   xmlns:inkscape="http://www.inkscape.org/namespaces/inkscape"
   width="1052.3622"
   height="744.09448"
   id="svg2"
   version="1.1"
   inkscape:version="0.48.3.1 r9886"
   sodipodi:docname="DataMining.svg">
  <defs
     id="defs4">
    <linearGradient
       id="linearGradient3943">
      <stop
         id="stop3945"
         offset="0"
         style="stop-color:#ffffff;stop-opacity:1;" />
      <stop
         style="stop-color:#b82a9b;stop-opacity:1;"
         offset="0.5"
         id="stop5901" />
      <stop
         id="stop3947"
         offset="1"
         style="stop-color:#2b0022;stop-opacity:1;" />
    </linearGradient>
    <linearGradient
       id="linearGradient3777">
      <stop
         id="stop3779"
         offset="0"
         style="stop-color:#ffffff;stop-opacity:1;" />
      <stop
         style="stop-color:#b82a9b;stop-opacity:1;"
         offset="0.5"
         id="stop3781" />
      <stop
         id="stop3783"
         offset="1"
         style="stop-color:#2b0022;stop-opacity:1;" />
    </linearGradient>
    <linearGradient
       id="linearGradient3786">
      <stop
         id="stop3788"
         offset="0"
         style="stop-color:#ffffff;stop-opacity:1;" />
      <stop
         style="stop-color:#b82a9b;stop-opacity:1;"
         offset="0.5"
         id="stop3790" />
      <stop
         id="stop3792"
         offset="1"
         style="stop-color:#2b0022;stop-opacity:1;" />
    </linearGradient>
    <linearGradient
       id="linearGradient3795">
      <stop
         id="stop3797"
         offset="0"
         style="stop-color:#ffffff;stop-opacity:1;" />
      <stop
         style="stop-color:#b82a9b;stop-opacity:1;"
         offset="0.5"
         id="stop3799" />
      <stop
         id="stop3801"
         offset="1"
         style="stop-color:#2b0022;stop-opacity:1;" />
    </linearGradient>
    <linearGradient
       id="linearGradient3804">
      <stop
         id="stop3806"
         offset="0"
         style="stop-color:#ffffff;stop-opacity:1;" />
      <stop
         style="stop-color:#b82a9b;stop-opacity:1;"
         offset="0.5"
         id="stop3808" />
      <stop
         id="stop3810"
         offset="1"
         style="stop-color:#2b0022;stop-opacity:1;" />
    </linearGradient>
    <linearGradient
       id="linearGradient3813">
      <stop
         id="stop3815"
         offset="0"
         style="stop-color:#ffffff;stop-opacity:1;" />
      <stop
         style="stop-color:#b82a9b;stop-opacity:1;"
         offset="0.5"
         id="stop3817" />
      <stop
         id="stop3819"
         offset="1"
         style="stop-color:#2b0022;stop-opacity:1;" />
    </linearGradient>
    <linearGradient
       id="linearGradient3822">
      <stop
         id="stop3824"
         offset="0"
         style="stop-color:#ffffff;stop-opacity:1;" />
      <stop
         style="stop-color:#b82a9b;stop-opacity:1;"
         offset="0.5"
         id="stop3826" />
      <stop
         id="stop3828"
         offset="1"
         style="stop-color:#2b0022;stop-opacity:1;" />
    </linearGradient>
    <linearGradient
       id="linearGradient3831">
      <stop
         id="stop3833"
         offset="0"
         style="stop-color:#ffffff;stop-opacity:1;" />
      <stop
         style="stop-color:#b82a9b;stop-opacity:1;"
         offset="0.5"
         id="stop3835" />
      <stop
         id="stop3837"
         offset="1"
         style="stop-color:#2b0022;stop-opacity:1;" />
    </linearGradient>
    <linearGradient
       id="linearGradient3840">
      <stop
         id="stop3842"
         offset="0"
         style="stop-color:#ffffff;stop-opacity:1;" />
      <stop
         style="stop-color:#b82a9b;stop-opacity:1;"
         offset="0.5"
         id="stop3844" />
      <stop
         id="stop3846"
         offset="1"
         style="stop-color:#2b0022;stop-opacity:1;" />
    </linearGradient>
    <linearGradient
       id="linearGradient3849">
      <stop
         id="stop3851"
         offset="0"
         style="stop-color:#ffffff;stop-opacity:1;" />
      <stop
         style="stop-color:#b82a9b;stop-opacity:1;"
         offset="0.5"
         id="stop3853" />
      <stop
         id="stop3855"
         offset="1"
         style="stop-color:#2b0022;stop-opacity:1;" />
    </linearGradient>
    <linearGradient
       id="linearGradient3858">
      <stop
         id="stop3860"
         offset="0"
         style="stop-color:#ffffff;stop-opacity:1;" />
      <stop
         style="stop-color:#b82a9b;stop-opacity:1;"
         offset="0.5"
         id="stop3862" />
      <stop
         id="stop3864"
         offset="1"
         style="stop-color:#2b0022;stop-opacity:1;" />
    </linearGradient>
    <radialGradient
       inkscape:collect="always"
       xlink:href="#linearGradient3943"
       id="radialGradient4025"
       gradientUnits="userSpaceOnUse"
       gradientTransform="matrix(0.69845358,0,0,1.9584531,46.234264,-79.796537)"
       spreadMethod="reflect"
       cx="153.32387"
       cy="83.255554"
       fx="153.32387"
       fy="83.255554"
       r="129.51562" />
    <linearGradient
       inkscape:collect="always"
       xlink:href="#linearGradient3943"
       id="linearGradient4027"
       gradientUnits="userSpaceOnUse"
       gradientTransform="matrix(0,-0.90387381,0.90387381,0,-11.174963,-4.5874816)"
       spreadMethod="reflect"
       x1="-67.051582"
       y1="186.6479"
       x2="239.42784"
       y2="276.27194" />
    <radialGradient
       inkscape:collect="always"
       xlink:href="#linearGradient3943"
       id="radialGradient4029"
       gradientUnits="userSpaceOnUse"
       gradientTransform="matrix(1.520165,1.520165,-0.52560005,0.52560005,127.64114,-298.62096)"
       spreadMethod="reflect"
       cx="81.428574"
       cy="186.6479"
       fx="81.428574"
       fy="186.6479"
       r="148.48015" />
    <radialGradient
       inkscape:collect="always"
       xlink:href="#linearGradient3943"
       id="radialGradient4031"
       gradientUnits="userSpaceOnUse"
       gradientTransform="matrix(0,3.0850561,-0.77952373,0,147.87658,-517.58695)"
       spreadMethod="reflect"
       cx="171.63785"
       cy="-12.402302"
       fx="171.63785"
       fy="-12.402302"
       r="134.20734" />
    <radialGradient
       inkscape:collect="always"
       xlink:href="#linearGradient3943"
       id="radialGradient4033"
       gradientUnits="userSpaceOnUse"
       gradientTransform="matrix(1.0460777,1.0460777,-0.4834426,0.4834426,26.532712,-124.50315)"
       spreadMethod="reflect"
       cx="153.33727"
       cy="69.497688"
       fx="153.33727"
       fy="69.497688"
       r="127.57837" />
    <radialGradient
       inkscape:collect="always"
       xlink:href="#linearGradient3943"
       id="radialGradient4035"
       gradientUnits="userSpaceOnUse"
       gradientTransform="matrix(0,3.0850561,-0.77952373,0,147.87658,-517.58695)"
       spreadMethod="reflect"
       cx="171.63785"
       cy="-12.402302"
       fx="171.63785"
       fy="-12.402302"
       r="134.20734" />
    <radialGradient
       inkscape:collect="always"
       xlink:href="#linearGradient3943"
       id="radialGradient4037"
       gradientUnits="userSpaceOnUse"
       gradientTransform="matrix(1.0460777,1.0460777,-0.4834426,0.4834426,65.20813,-83.178554)"
       spreadMethod="reflect"
       cx="153.33727"
       cy="149.4977"
       fx="153.33727"
       fy="149.4977"
       r="127.57837" />
    <radialGradient
       inkscape:collect="always"
       xlink:href="#linearGradient3943"
       id="radialGradient4039"
       gradientUnits="userSpaceOnUse"
       gradientTransform="matrix(0,3.0850561,-0.77952373,0,147.87658,-517.58695)"
       spreadMethod="reflect"
       cx="171.63785"
       cy="-12.402302"
       fx="171.63785"
       fy="-12.402302"
       r="134.20734" />
    <radialGradient
       inkscape:collect="always"
       xlink:href="#linearGradient3943"
       id="radialGradient4041"
       gradientUnits="userSpaceOnUse"
       gradientTransform="matrix(1.0460777,1.0460782,-0.48344253,0.48344232,-12.142675,-165.82771)"
       spreadMethod="reflect"
       cx="153.33717"
       cy="-10.502288"
       fx="153.33717"
       fy="-10.502288"
       r="127.57831" />
    <radialGradient
       inkscape:collect="always"
       xlink:href="#linearGradient3943"
       id="radialGradient4043"
       gradientUnits="userSpaceOnUse"
       gradientTransform="matrix(0,3.0850561,-0.77952373,0,147.87658,-517.58695)"
       spreadMethod="reflect"
       cx="171.63785"
       cy="-12.402302"
       fx="171.63785"
       fy="-12.402302"
       r="134.20734" />
    <radialGradient
       inkscape:collect="always"
       xlink:href="#linearGradient3943"
       id="radialGradient4045"
       gradientUnits="userSpaceOnUse"
       gradientTransform="matrix(1.0460777,1.0460777,-0.483443,0.48344299,103.8836,-41.854071)"
       spreadMethod="reflect"
       cx="153.33727"
       cy="229.49765"
       fx="153.33727"
       fy="229.49765"
       r="127.57837" />
  </defs>
  <sodipodi:namedview
     id="base"
     pagecolor="#ffffff"
     bordercolor="#666666"
     borderopacity="1.0"
     inkscape:pageopacity="0.0"
     inkscape:pageshadow="2"
     inkscape:zoom="0.4078108"
     inkscape:cx="281.97187"
     inkscape:cy="439.56238"
     inkscape:document-units="px"
     inkscape:current-layer="layer1"
     showgrid="false"
     inkscape:window-width="1600"
     inkscape:window-height="871"
     inkscape:window-x="0"
     inkscape:window-y="150"
     inkscape:window-maximized="1" />
  <metadata
     id="metadata7">
    <rdf:RDF>
      <cc:Work
         rdf:about="">
        <dc:format>image/svg+xml</dc:format>
        <dc:type
           rdf:resource="http://purl.org/dc/dcmitype/StillImage" />
        <dc:title></dc:title>
      </cc:Work>
    </rdf:RDF>
  </metadata>
  <g
     inkscape:label="Layer 1"
     inkscape:groupmode="layer"
     id="layer1"
     transform="translate(0,-308.2677)">
    <g
       id="g4047"
       transform="matrix(4,0,0,4,-905.79121,-1668.8247)">
      <path
         sodipodi:nodetypes="cccccccccccccccccccccccccccccccccccccccccccccscccscccccc"
         inkscape:connector-curvature="0"
         id="path3769-28-4"
         d="m 328.86327,521.01219 c 1.27841,0.45735 2.58471,1.78663 3.91808,4.11102 2.09014,3.80835 1.99612,7.09115 1.20332,10.21125 -1.8355,1.72396 -3.76223,1.97973 -5.89395,-0.57975 l -0.26319,1.55203 c 1.29588,1.78591 2.55771,3.92097 3.71177,7.02863 0.18827,4.59669 0.31738,9.14305 -0.24284,13.18206 1.21135,2.39048 2.17209,4.85375 2.951,7.35557 0.81836,2.76836 1.35391,5.43392 1.5293,7.95679 l 4.99717,6.21192 c 6.16343,2.09876 3.48959,8.13013 -0.4185,2.63681 l -4.22933,-5.08339 -3.41818,-1.10539 -1.38408,-4.88682 -4.75319,-5.33789 1.83433,5.47642 2.66505,24.46185 c 3.42935,2.25233 4.87923,4.16976 5.07077,5.87682 l -9.51615,-3.63352 -4.88679,-21.95062 0.76999,0.14872 -0.4588,-3.18969 c -2.42848,-3.9549 -4.29582,-9.03449 -6.2197,-13.9971 0.66012,5.40724 -0.26959,9.28978 -1.4329,13.14534 -2.63748,4.45771 -5.94246,7.97884 -9.38647,11.30703 0.50018,2.93484 2.30601,5.41345 3.66661,8.04647 l -3.76496,-1.58283 -1.86845,-2.58389 -4.83766,-12.01662 2.11475,-0.0279 6.71564,-11.12827 0.50472,1.42759 c 1.68039,-1.38861 1.41343,-4.58218 1.41783,-7.53972 -0.75794,-5.45959 0.15481,-9.00302 1.14969,-12.43631 l -1.12158,-1.68126 c -0.0413,0.80704 -0.26022,0.79471 -0.4535,0.8801 -1.50959,-1.23181 -2.60837,-2.97773 -3.16197,-5.36591 0.15769,-1.0272 0.47907,-1.84038 1.44433,-1.73664 l 0.0834,-4.7442 c 0.85331,-13.06488 3.4881,-10.56991 5.6552,-12.15058 4.1445,2.36287 8.33368,4.46096 11.86012,10.33962 0.37122,0.0861 0.79744,0.26328 0.45524,-0.86128 -0.6376,-4.56522 0.17301,-6.00779 1.05825,-7.27751 0.96501,-0.64008 1.94134,-0.81471 2.93566,-0.45893 z m -15.77513,6.39791 c -2.17068,-0.9382 -2.90462,3.06529 -3.42648,12.34783 l 1.0924,1.74275 4.51512,-12.15005 c -0.85961,-1.02965 -1.57326,-1.67784 -2.18104,-1.94053 z m 13.39857,20.02509 c -0.83492,0.43237 -1.61973,0.72678 -3.74868,5.61464 l 1.51642,4.68312 7.4828,9.30385 c -0.69896,-3.7648 -2.54812,-6.49157 -4.11452,-9.48869 -0.77647,-3.42194 -1.12,-6.7858 -1.13602,-10.11292 z"
         style="fill:#999999;fill-opacity:1;stroke:none" />
      <path
         sodipodi:nodetypes="cccccccccccccccccccccccccccccccccccccccccccccscccscccccc"
         inkscape:connector-curvature="0"
         id="path3769-28"
         d="m 391.53829,521.01219 c -1.27841,0.45735 -2.58471,1.78663 -3.91808,4.11102 -2.09014,3.80835 -1.99612,7.09115 -1.20332,10.21125 1.8355,1.72396 3.76223,1.97973 5.89395,-0.57975 l 0.26319,1.55203 c -1.29588,1.78591 -2.55771,3.92097 -3.71177,7.02863 -0.18827,4.59669 -0.31738,9.14305 0.24284,13.18206 -1.21135,2.39048 -2.17209,4.85375 -2.951,7.35557 -0.81836,2.76836 -1.35391,5.43392 -1.5293,7.95679 l -4.99717,6.21192 c 0.20665,-1.22386 0.11935,-1.57635 -0.45899,-1.94944 -0.1343,11.01451 -20.13346,30.79209 5.10682,-0.49714 l 3.41818,-1.10539 1.38408,-4.88682 4.75319,-5.33789 -1.83433,5.47642 -2.66505,24.46185 c -3.42935,2.25233 -4.87923,4.16976 -5.07077,5.87682 l 9.51615,-3.63352 4.88679,-21.95062 -0.76999,0.14872 0.4588,-3.18969 c 2.42848,-3.9549 4.29582,-9.03449 6.2197,-13.9971 -0.66012,5.40724 0.26959,9.28978 1.4329,13.14534 2.63748,4.45771 5.94246,7.97884 9.38647,11.30703 -0.50018,2.93484 -2.30601,5.41345 -3.66661,8.04647 l 3.76496,-1.58283 1.86845,-2.58389 4.83766,-12.01662 -2.11475,-0.0279 -6.71564,-11.12827 -0.50472,1.42759 c -1.68039,-1.38861 -1.41343,-4.58218 -1.41783,-7.53972 0.75794,-5.45959 -0.15481,-9.00302 -1.14969,-12.43631 l 1.12158,-1.68126 c 0.0413,0.80704 0.26022,0.79471 0.4535,0.8801 1.50959,-1.23181 2.60837,-2.97773 3.16197,-5.36591 -0.15769,-1.0272 -0.47907,-1.84038 -1.44433,-1.73664 l -0.0834,-4.7442 c -0.85331,-13.06488 -3.4881,-10.56991 -5.6552,-12.15058 -4.1445,2.36287 -8.33368,4.46096 -11.86012,10.33962 -0.37122,0.0861 -0.79744,0.26328 -0.45524,-0.86128 0.6376,-4.56522 -0.17301,-6.00779 -1.05825,-7.27751 -0.96501,-0.64008 -1.94134,-0.81471 -2.93566,-0.45893 z m 15.77513,6.39791 c 2.17068,-0.9382 2.90462,3.06529 3.42648,12.34783 l -1.0924,1.74275 -4.51512,-12.15005 c 0.85961,-1.02965 1.57326,-1.67784 2.18104,-1.94053 z m -13.39857,20.02509 c 0.83492,0.43237 1.61973,0.72678 3.74868,5.61464 l -1.51642,4.68312 -7.4828,9.30385 c 0.69896,-3.7648 2.54812,-6.49157 4.11452,-9.48869 0.77647,-3.42194 1.12,-6.7858 1.13602,-10.11292 z"
         style="fill:#999999;fill-opacity:1;stroke:none" />
      <path
         sodipodi:nodetypes="sccccccccccccccccccccccccccccccccccccccccccsscccscccccc"
         inkscape:connector-curvature="0"
         id="path3769"
         d="m 392.70116,541.43228 c -2.31326,-0.0369 -4.52729,0.95888 -6.6192,3.13541 -3.2506,3.60934 -2.50462,7.58848 -0.47902,11.69246 3.73466,2.90736 7.3851,4.09609 10.93039,2.00318 l 0.76208,1.9814 c -2.11526,1.54804 -4.10615,3.53031 -5.72648,6.72807 0.44583,5.42527 0.99363,10.81729 2.74348,15.91656 -1.85208,2.31162 -3.22248,4.82526 -4.24586,7.46837 -1.05095,2.94463 -1.59041,5.89547 -1.48061,8.84011 l -8.274,5.16036 c 8.07454,13.95079 -6.42291,-10.57755 1.2411,3.35314 l 7.0329,-4.15877 6.20549,0.23951 1.7419,-5.22568 7.96916,-4.22409 -2.4822,5.72648 -0.7403,28.10981 c -6.02724,1.13058 -8.40788,2.76581 -8.46996,4.72489 l 17.17943,0 5.33455,-24.08169 -1.41529,-0.17419 0.30483,-3.61443 c 3.85841,-3.63015 6.47128,-8.86572 9.21026,-13.93515 -0.29654,6.1811 2.11767,11.26192 4.9644,16.41735 5.71031,6.55227 12.5073,12.2872 19.53099,17.85442 -0.42651,3.28992 -3.3759,5.43505 -5.46519,7.96916 l 6.77161,-0.17419 3.04831,-2.24269 6.96758,-12.19326 -3.96281,-1.00158 -14.50127,-16.41736 -0.69675,1.48061 c -3.38611,-2.43424 -3.44102,-6.14114 -3.96281,-9.68928 0.47057,-6.19907 -1.85302,-10.86554 -4.31119,-15.43754 l 1.80721,-1.50238 c 0.21743,0.98656 0.62503,1.072 1.00159,1.26287 2.61143,-0.78584 4.36474,-2.37617 4.98617,-4.98617 -0.4735,-1.30381 -1.2162,-2.42595 -3.00476,-2.74348 l -0.97982,-5.72648 c -3.86564,-16.05554 -8.36365,-14.27029 -12.69405,-17.15765 -7.34651,0.93569 -14.82266,1.53346 -20.40193,6.96757 -0.67983,-0.0667 -1.44677,-0.0494 -1.00159,-1.2411 0.40062,-5.18182 -1.36701,-7.28258 -3.24428,-9.21026 -1.91725,-1.20926 -3.77487,-1.86561 -5.57406,-1.89431 z m 30.63556,14.89319 c 3.89972,-0.13114 5.96853,5.00508 8.55705,16.37381 l -1.74189,1.58947 -10.56023,-16.63508 c 1.43004,-0.84102 2.65315,-1.29148 3.74507,-1.3282 z m -21.59949,17.87619 c 1.63772,0.90065 3.15767,1.61293 7.99094,8.44819 l -2.02495,4.92085 -12.38922,7.72965 c 0.65447,-4.19402 3.64184,-6.61688 6.05308,-9.49332 0.85906,-3.74745 0.91789,-7.62346 0.37015,-11.60537 z"
         style="fill:#000000;fill-opacity:1;stroke:none" />
      <path
         sodipodi:nodetypes="sccccccccccccccccccccccccccccccccccccccccccsscccscccccc"
         inkscape:connector-curvature="0"
         id="path3769-2"
         d="m 322.3223,541.43228 c 2.31326,-0.0369 4.52729,0.95888 6.6192,3.13541 3.2506,3.60934 2.50462,7.58848 0.47902,11.69246 -3.73466,2.90736 -7.3851,4.09609 -10.93039,2.00318 l -0.76208,1.9814 c 2.11526,1.54804 4.10615,3.53031 5.72648,6.72807 -0.44583,5.42527 -0.99363,10.81729 -2.74348,15.91656 1.85208,2.31162 3.22248,4.82526 4.24586,7.46837 1.05095,2.94463 1.59041,5.89547 1.48061,8.84011 l 8.274,5.16036 c 1.04878,-0.46294 2.55654,1.49948 -1.2411,3.35314 l -7.0329,-4.15877 -6.20549,0.23951 -1.7419,-5.22568 -7.96916,-4.22409 2.4822,5.72648 0.7403,28.10981 c 6.02724,1.13058 8.40788,2.76581 8.46996,4.72489 l -17.17943,0 -5.33455,-24.08169 1.41529,-0.17419 -0.30483,-3.61443 c -3.85841,-3.63015 -6.47128,-8.86572 -9.21026,-13.93515 0.29654,6.1811 -2.11767,11.26192 -4.9644,16.41735 -5.71031,6.55227 -12.5073,12.2872 -19.53099,17.85442 0.42651,3.28992 3.3759,5.43505 5.46519,7.96916 l -6.77161,-0.17419 -3.04831,-2.24269 -6.96758,-12.19326 3.96281,-1.00158 14.50127,-16.41736 0.69675,1.48061 c 3.38611,-2.43424 3.44102,-6.14114 3.96281,-9.68928 -0.47057,-6.19907 1.85302,-10.86554 4.31119,-15.43754 l -1.80721,-1.50238 c -0.21743,0.98656 -0.62503,1.072 -1.00159,1.26287 -2.61143,-0.78584 -4.36474,-2.37617 -4.98617,-4.98617 0.4735,-1.30381 1.2162,-2.42595 3.00476,-2.74348 l 0.97982,-5.72648 c 3.86564,-16.05554 8.36365,-14.27029 12.69405,-17.15765 7.34651,0.93569 14.82266,1.53346 20.40193,6.96757 0.67983,-0.0667 1.44677,-0.0494 1.00159,-1.2411 -0.40062,-5.18182 1.36701,-7.28258 3.24428,-9.21026 1.91725,-1.20926 3.77487,-1.86561 5.57406,-1.89431 z m -30.63556,14.89319 c -3.89972,-0.13114 -5.96853,5.00508 -8.55705,16.37381 l 1.74189,1.58947 10.56023,-16.63508 c -1.43004,-0.84102 -2.65315,-1.29148 -3.74507,-1.3282 z m 21.59949,17.87619 c -1.63772,0.90065 -3.15767,1.61293 -7.99094,8.44819 l 2.02495,4.92085 12.38922,7.72965 c -0.65447,-4.19402 -3.64184,-6.61688 -6.05308,-9.49332 -0.85906,-3.74745 -0.91789,-7.62346 -0.37015,-11.60537 z"
         style="fill:#000000;fill-opacity:1;stroke:none" />
      <g
         transform="matrix(2,0,0,2,-673.71982,-260.4482)"
         id="g4016">
        <g
           id="g8171"
           transform="matrix(0.09611057,0,0,0.09611057,501.60063,429.40713)">
          <path
             inkscape:connector-curvature="0"
             id="path5738"
             d="m 153.30824,-119.26007 c -49.15392,0 -91.761548,9.2958 -113.062498,22.874995 -9.71427,4.466063 -16.4375,14.258468 -16.4375,25.6875 l 0,307.906255 c 0,11.39392 6.67774,21.17125 16.34375,25.65625 21.26903,13.61099 63.928378,22.90625 113.156248,22.90625 49.19954,0 91.86562,-9.27681 113.15625,-22.875 9.69577,-4.47335 16.375,-14.27193 16.375,-25.6875 l 0,-307.906255 c 0,-11.449999 -6.72564,-21.264126 -16.46875,-25.71875 -21.3225,-13.566365 -63.937,-22.843745 -113.0625,-22.843745 z"
             style="color:#000000;fill:url(#radialGradient4025);fill-opacity:1;fill-rule:nonzero;stroke:none;stroke-width:4.84325314;marker:none;visibility:visible;display:inline;overflow:visible;enable-background:accumulate" />
          <path
             id="path3016"
             d="m 280.90224,-76.73395 c 0,23.486532 -57.11878,42.526128 -127.57837,42.526128 -70.459593,0 -127.578377,-19.039596 -127.578377,-42.526128 0,-23.48653 57.118784,-42.52613 127.578377,-42.52613 70.45959,0 127.57837,19.0396 127.57837,42.52613 z"
             style="color:#000000;fill:url(#linearGradient4027);fill-opacity:1;fill-rule:nonzero;stroke:url(#radialGradient4029);stroke-width:4.84325314;stroke-linecap:round;stroke-linejoin:round;stroke-miterlimit:4;marker:none;visibility:visible;display:inline;overflow:visible;enable-background:accumulate"
             inkscape:connector-curvature="0" />
          <path
             inkscape:connector-curvature="0"
             id="path3048"
             d="m 25.758882,13.212712 0,70.048398 c 0,23.48832 57.099712,42.52156 127.564698,42.52156 70.46498,0 127.59205,-19.03324 127.59205,-42.52156 l 0,-70.048398 c 0,0.367005 -0.027,0.729732 -0.0546,1.094506 -0.0227,0.301635 -0.0407,0.60293 -0.0821,0.902967 -0.0152,0.110323 -0.0369,0.218252 -0.0547,0.328353 -0.0471,0.291765 -0.0995,0.585436 -0.16418,0.875605 -0.0305,0.137104 -0.075,0.273701 -0.10946,0.410439 -0.0419,0.166639 -0.0891,0.326443 -0.1368,0.492529 -0.12159,0.423604 -0.25182,0.838805 -0.41044,1.258682 -0.14028,0.371242 -0.29637,0.753672 -0.46517,1.121868 -0.004,0.0077 0.004,0.01963 0,0.02736 -0.0938,0.203726 -0.19861,0.399216 -0.30098,0.601979 -0.11786,0.233171 -0.25388,0.4522 -0.38308,0.684066 -0.0652,0.11705 -0.12352,0.239002 -0.19154,0.355713 -0.2141,0.366954 -0.44183,0.730996 -0.68407,1.094507 -0.2081,0.312546 -0.42808,0.620417 -0.6567,0.93033 -0.54342,0.736657 -1.14901,1.468026 -1.80594,2.189012 -0.11549,0.126683 -0.23677,0.256899 -0.35571,0.383078 -0.18981,0.201396 -0.3761,0.401886 -0.57462,0.601978 -0.23235,0.234256 -0.46723,0.451636 -0.71143,0.684066 -0.10226,0.09738 -0.19667,0.203931 -0.30099,0.300989 -0.39748,0.369534 -0.80423,0.729791 -1.23132,1.094507 -0.43661,0.373242 -0.87368,0.75384 -1.34077,1.121869 -0.46571,0.36683 -0.95473,0.733025 -1.45021,1.094505 -0.24089,0.175879 -0.49097,0.345309 -0.7388,0.519892 -0.3767,0.265206 -0.75664,0.531358 -1.14923,0.793515 -0.56672,0.378672 -1.15191,0.749733 -1.75121,1.121869 -0.23815,0.147747 -0.49557,0.291112 -0.73879,0.437803 -0.84234,0.508023 -1.69736,1.037268 -2.59945,1.53231 -0.97441,0.534806 -1.99509,1.040672 -3.03726,1.55967 -0.29063,0.144717 -0.57981,0.294349 -0.8756,0.437802 -0.4731,0.229496 -0.96406,0.457852 -1.45022,0.684067 -1.04574,0.486578 -2.12387,0.979266 -3.2288,1.45022 -0.69509,0.296272 -1.389,0.58571 -2.10692,0.875605 -0.18227,0.07358 -0.36353,0.145741 -0.54726,0.218902 -0.42174,0.168031 -0.8567,0.326716 -1.28604,0.492528 -0.51623,0.199263 -1.03261,0.378604 -1.55968,0.574616 -0.83946,0.312306 -1.70562,0.62645 -2.57208,0.930329 -0.87354,0.306362 -1.75384,0.605386 -2.65418,0.902968 -0.89662,0.296275 -1.81372,0.588241 -2.73627,0.875605 -0.44144,0.137546 -0.86612,0.27497 -1.3134,0.410439 -0.4937,0.149553 -0.97687,0.29081 -1.47758,0.437803 -0.73292,0.21526 -1.46866,0.419652 -2.21637,0.629341 -0.22136,0.06206 -0.43409,0.129977 -0.65672,0.191539 -0.0933,0.02579 -0.18015,0.05639 -0.27362,0.08208 -0.88377,0.243017 -1.77806,0.476264 -2.68153,0.711429 -0.71283,0.185613 -1.40946,0.366619 -2.13429,0.547253 -0.30046,0.07491 -0.60049,0.144863 -0.90298,0.218901 -0.39515,0.09671 -0.80534,0.178401 -1.20395,0.273627 -0.62923,0.150328 -1.25034,0.318579 -1.88803,0.465164 -20.56305,4.726809 -45.47697,7.497368 -72.34685,7.497368 -26.86987,0 -51.78873,-2.770559 -72.346854,-7.497368 C 79.879226,47.984556 78.792877,47.734138 77.7206,47.470751 77.140938,47.328384 76.568886,47.178484 75.996763,47.032946 75.239451,46.84029 74.496877,46.6291 73.753024,46.430968 73.141543,46.268089 72.521942,46.104967 71.919727,45.93844 70.71089,45.604056 69.505807,45.274794 68.33522,44.926022 67.715697,44.741416 67.110464,44.539957 66.501922,44.351405 66.216424,44.262958 65.936731,44.167087 65.653679,44.077779 64.930772,43.849649 64.198767,43.627375 63.49203,43.393713 62.680041,43.125255 61.901683,42.848445 61.111479,42.572834 60.939865,42.51302 60.762162,42.468809 60.591588,42.408658 59.806772,42.131715 59.028254,41.844309 58.265762,41.560416 57.403483,41.2396 56.581525,40.932208 55.748398,40.602723 54.99517,40.304828 54.260891,40.004564 53.532024,39.699755 c -0.147301,-0.06158 -0.29151,-0.129684 -0.437803,-0.191539 -0.679898,-0.287599 -1.366949,-0.582078 -2.024836,-0.875605 -1.018649,-0.454294 -1.990518,-0.900058 -2.955167,-1.368131 -0.294139,-0.142736 -0.586581,-0.29382 -0.875604,-0.437803 -1.0414,-0.518831 -2.063574,-1.025046 -3.037255,-1.559671 -0.901589,-0.495042 -1.757613,-1.024287 -2.599453,-1.53231 -0.244626,-0.147697 -0.499302,-0.289036 -0.738792,-0.437803 -0.599079,-0.372135 -1.184712,-0.743197 -1.751209,-1.121867 -0.260106,-0.173802 -0.51301,-0.344745 -0.766155,-0.519891 -0.130975,-0.09062 -0.253977,-0.182649 -0.383077,-0.273626 -0.246315,-0.173521 -0.499345,-0.34509 -0.738792,-0.519891 -0.45463,-0.332078 -0.911224,-0.675822 -1.340769,-1.012418 -0.03637,-0.02849 -0.07327,-0.05357 -0.109452,-0.08208 -0.466897,-0.368029 -0.904329,-0.748627 -1.340769,-1.121869 -0.321417,-0.274664 -0.625657,-0.543472 -0.93033,-0.82088 -0.101546,-0.09247 -0.201318,-0.180861 -0.30099,-0.273626 -0.105604,-0.09824 -0.197497,-0.202411 -0.300988,-0.30099 -0.241074,-0.22966 -0.481901,-0.452623 -0.71143,-0.684066 -0.196743,-0.198497 -0.386445,-0.402196 -0.574616,-0.601978 -0.120285,-0.127684 -0.238953,-0.254879 -0.355713,-0.383078 -0.220952,-0.24255 -0.448473,-0.494424 -0.656705,-0.738791 -0.312449,-0.366811 -0.619529,-0.723725 -0.902966,-1.094506 -0.08848,-0.115824 -0.160649,-0.239511 -0.246265,-0.355714 -0.228519,-0.309914 -0.44869,-0.617784 -0.656704,-0.93033 -0.152293,-0.228712 -0.296609,-0.453983 -0.437802,-0.684067 -0.08459,-0.137844 -0.165681,-0.272114 -0.246264,-0.410441 -0.0681,-0.116805 -0.126314,-0.238568 -0.191539,-0.355713 -0.128959,-0.231791 -0.265442,-0.45097 -0.383077,-0.684066 -0.100058,-0.198124 -0.181818,-0.402934 -0.273626,-0.601979 -0.0051,-0.01111 -0.02227,-0.01624 -0.02736,-0.02736 -0.168723,-0.368196 -0.324958,-0.750627 -0.465166,-1.121869 -0.12845,-0.340293 -0.251539,-0.669666 -0.355715,-1.012418 -0.02491,-0.0818 -0.0312,-0.164326 -0.05472,-0.246264 -0.04709,-0.1642 -0.09534,-0.327788 -0.136813,-0.492528 -0.03472,-0.137984 -0.07868,-0.272084 -0.109451,-0.410439 -0.06462,-0.29017 -0.117116,-0.583841 -0.164175,-0.875606 -0.0176,-0.108909 -0.0396,-0.219227 -0.05472,-0.328352 -0.04146,-0.300038 -0.05939,-0.601332 -0.08209,-0.902968 -0.02771,-0.364773 -0.05472,-0.7275 -0.05472,-1.094506 z"
             style="color:#000000;fill:url(#radialGradient4031);fill-opacity:1;fill-rule:nonzero;stroke:url(#radialGradient4033);stroke-width:4.84325218;stroke-linecap:round;stroke-linejoin:round;stroke-miterlimit:4;stroke-opacity:1;stroke-dasharray:none;stroke-dashoffset:0;marker:none;visibility:visible;display:inline;overflow:visible;enable-background:accumulate" />
          <path
             inkscape:connector-curvature="0"
             id="path3062"
             d="m 25.758882,93.212714 0,70.048396 c 0,23.48832 57.099711,42.52156 127.564698,42.52156 70.46497,0 127.59205,-19.03324 127.59205,-42.52156 l 0,-70.048396 c 0,0.367003 -0.027,0.729724 -0.0546,1.094508 -0.0227,0.301628 -0.0407,0.602927 -0.0821,0.902966 -0.0152,0.11032 -0.0369,0.218257 -0.0547,0.328344 -0.0471,0.291777 -0.0995,0.585442 -0.16418,0.875611 -0.0305,0.137103 -0.075,0.273702 -0.10946,0.410437 -0.0419,0.166637 -0.0891,0.326445 -0.13681,0.49253 -0.12158,0.42361 -0.25181,0.838803 -0.41044,1.258684 -0.14027,0.371235 -0.29636,0.753678 -0.46516,1.121872 -0.004,0.0077 0.004,0.01957 0,0.02732 -0.0938,0.203726 -0.19861,0.399204 -0.30099,0.601974 -0.11786,0.23316 -0.25387,0.45219 -0.38308,0.68407 -0.0652,0.11704 -0.12352,0.239 -0.19154,0.35571 -0.21409,0.36695 -0.44182,0.731 -0.68406,1.09451 -0.2081,0.31254 -0.42808,0.62041 -0.6567,0.93033 -0.54342,0.73666 -1.14901,1.46802 -1.80594,2.189 -0.11549,0.12669 -0.23678,0.25691 -0.35572,0.38308 -0.1898,0.20141 -0.37609,0.40189 -0.57461,0.60198 -0.23235,0.23427 -0.46723,0.45164 -0.71143,0.68407 -0.10226,0.0974 -0.19667,0.20392 -0.30099,0.30098 -0.39748,0.36953 -0.80423,0.7298 -1.23132,1.09452 -0.43661,0.37324 -0.87368,0.75384 -1.34077,1.12186 -0.46571,0.36684 -0.95473,0.73303 -1.45021,1.09451 -0.2409,0.17588 -0.49097,0.34531 -0.7388,0.51989 -0.37671,0.2652 -0.75664,0.53136 -1.14923,0.79351 -0.56672,0.37869 -1.15191,0.74974 -1.75121,1.12187 -0.23815,0.14775 -0.49557,0.29112 -0.73879,0.4378 -0.84235,0.50803 -1.69736,1.03727 -2.59945,1.53231 -0.97441,0.53482 -1.99509,1.04068 -3.03726,1.55967 -0.29063,0.14472 -0.57981,0.29436 -0.87561,0.43781 -0.47309,0.2295 -0.96405,0.45785 -1.45021,0.68407 -1.04575,0.48657 -2.12388,0.97926 -3.2288,1.45021 -0.69509,0.29628 -1.389,0.58572 -2.10692,0.87561 -0.18227,0.0735 -0.36353,0.14574 -0.54726,0.2189 -0.42174,0.16803 -0.85671,0.32672 -1.28604,0.49253 -0.51623,0.19926 -1.03261,0.37861 -1.55968,0.57461 -0.83946,0.31231 -1.70562,0.62646 -2.57208,0.93033 -0.87354,0.30637 -1.75384,0.60539 -2.65418,0.90298 -0.89663,0.29627 -1.81372,0.58823 -2.73627,0.87559 -0.44144,0.13756 -0.86612,0.27497 -1.31341,0.41045 -0.49369,0.14955 -0.97686,0.29081 -1.47757,0.43781 -0.73292,0.21525 -1.46866,0.41965 -2.21638,0.62933 -0.22135,0.0621 -0.43408,0.12997 -0.65671,0.19154 -0.0933,0.0258 -0.18015,0.0564 -0.27362,0.0821 -0.88377,0.24303 -1.77806,0.47627 -2.68153,0.71144 -0.71283,0.1856 -1.40946,0.36661 -2.13429,0.54725 -0.30046,0.0749 -0.60049,0.14486 -0.90298,0.2189 -0.39515,0.0967 -0.80534,0.1784 -1.20395,0.27363 -0.62923,0.15032 -1.25034,0.31857 -1.88803,0.46516 -20.56305,4.72681 -45.47697,7.49737 -72.34685,7.49737 -26.86987,0 -51.78873,-2.77056 -72.346855,-7.49737 -1.097529,-0.25235 -2.183879,-0.50276 -3.256155,-0.76615 -0.579672,-0.14237 -1.151724,-0.29227 -1.723847,-0.43781 -0.757311,-0.19266 -1.499885,-0.40384 -2.243738,-0.60198 -0.611482,-0.16288 -1.231083,-0.326 -1.833298,-0.49252 -1.208837,-0.33439 -2.413919,-0.66364 -3.584507,-1.01241 -0.619523,-0.18461 -1.224755,-0.38607 -1.833298,-0.57463 -0.285497,-0.0885 -0.56519,-0.18431 -0.848243,-0.27362 -0.722906,-0.22814 -1.454912,-0.4504 -2.161649,-0.68406 -0.811989,-0.26846 -1.590347,-0.54528 -2.380551,-0.82089 -0.171614,-0.0598 -0.349316,-0.10402 -0.51989,-0.16417 -0.784815,-0.27695 -1.563334,-0.56435 -2.325826,-0.84825 -0.862279,-0.32081 -1.684238,-0.62821 -2.517364,-0.95769 -0.753229,-0.29789 -1.487508,-0.59817 -2.216375,-0.90296 -0.1473,-0.0616 -0.291509,-0.12969 -0.437803,-0.19154 -0.679897,-0.2876 -1.366949,-0.58208 -2.024836,-0.87561 -1.018648,-0.4543 -1.990518,-0.90005 -2.955167,-1.36814 -0.294138,-0.14273 -0.586581,-0.29381 -0.875604,-0.4378 -1.041399,-0.51883 -2.063572,-1.02504 -3.037254,-1.55967 -0.90159,-0.49504 -1.757613,-1.02428 -2.599453,-1.53231 -0.244625,-0.1477 -0.499303,-0.28903 -0.738791,-0.4378 -0.599081,-0.37214 -1.184713,-0.74319 -1.75121,-1.12187 -0.260106,-0.1738 -0.51301,-0.34473 -0.766155,-0.5199 -0.130974,-0.0906 -0.253978,-0.18263 -0.383077,-0.27361 -0.246316,-0.17352 -0.499346,-0.34509 -0.738792,-0.51989 -0.45463,-0.33208 -0.911223,-0.67582 -1.34077,-1.01242 -0.03637,-0.0285 -0.07327,-0.0536 -0.10945,-0.0821 -0.466898,-0.36802 -0.904331,-0.74862 -1.34077,-1.12186 -0.321417,-0.27467 -0.625658,-0.54348 -0.93033,-0.82088 -0.101547,-0.0925 -0.201318,-0.18087 -0.30099,-0.27364 -0.105603,-0.0982 -0.197497,-0.20241 -0.300989,-0.30098 -0.241073,-0.22967 -0.4819,-0.45263 -0.711429,-0.68407 -0.196743,-0.1985 -0.386444,-0.4022 -0.574616,-0.60198 -0.120286,-0.12767 -0.238954,-0.25488 -0.355714,-0.38308 -0.220951,-0.24254 -0.448473,-0.49442 -0.656704,-0.73879 -0.31245,-0.3668 -0.619529,-0.72372 -0.902967,-1.0945 -0.08848,-0.11583 -0.160649,-0.23951 -0.246264,-0.35571 -0.22852,-0.30992 -0.44869,-0.61779 -0.656703,-0.93034 -0.152294,-0.2287 -0.29661,-0.45398 -0.437803,-0.68406 -0.08459,-0.13784 -0.16568,-0.27212 -0.246264,-0.41045 -0.0681,-0.11679 -0.126314,-0.23856 -0.191538,-0.3557 -0.128961,-0.2318 -0.265443,-0.45098 -0.383077,-0.68407 -0.100059,-0.19813 -0.18182,-0.402936 -0.273627,-0.601975 -0.0051,-0.01114 -0.02227,-0.01618 -0.02736,-0.02732 -0.168723,-0.368193 -0.324958,-0.750636 -0.465166,-1.121871 -0.12845,-0.340297 -0.251539,-0.669658 -0.355715,-1.012415 -0.02491,-0.08185 -0.0312,-0.164331 -0.05472,-0.246269 -0.04709,-0.164196 -0.09535,-0.327782 -0.136813,-0.49253 -0.03472,-0.137984 -0.07869,-0.272084 -0.10945,-0.410437 -0.06462,-0.290169 -0.117118,-0.583835 -0.164177,-0.875612 -0.0176,-0.108905 -0.0396,-0.219225 -0.05472,-0.328343 -0.04145,-0.30004 -0.05939,-0.601338 -0.08208,-0.902966 -0.02771,-0.364785 -0.05472,-0.727506 -0.05472,-1.094508 z"
             style="color:#000000;fill:url(#radialGradient4035);fill-opacity:1;fill-rule:nonzero;stroke:url(#radialGradient4037);stroke-width:4.84325218;stroke-linecap:round;stroke-linejoin:round;stroke-miterlimit:4;stroke-opacity:1;stroke-dasharray:none;stroke-dashoffset:0;marker:none;visibility:visible;display:inline;overflow:visible;enable-background:accumulate" />
          <path
             inkscape:connector-curvature="0"
             id="path3035"
             d="m 25.758866,-66.787237 0,70.0483611 c 0,23.4883199 57.099682,42.5215449 127.564634,42.5215449 70.46494,0 127.59199,-19.033225 127.59199,-42.5215449 l 0,-70.0483611 c 0,0.431372 -0.0166,0.857762 -0.0547,1.286043 -0.0139,0.154719 -0.0358,0.310865 -0.0547,0.465166 -0.0278,0.229966 -0.0706,0.455059 -0.10944,0.684066 -0.0228,0.134751 -0.028,0.276028 -0.0548,0.410439 -0.0799,0.404117 -0.18746,0.803001 -0.30099,1.203958 -0.12537,0.443158 -0.27193,0.874318 -0.4378,1.313405 -0.16541,0.437849 -0.3422,0.879807 -0.54725,1.313407 -0.13502,0.285494 -0.28585,0.564664 -0.43781,0.848241 -0.0798,0.14889 -0.16179,0.289456 -0.24627,0.437803 -0.24566,0.431909 -0.50897,0.858866 -0.79351,1.286044 -0.20723,0.311123 -0.42915,0.621814 -0.65669,0.930331 -0.0856,0.116139 -0.15777,0.239952 -0.24627,0.355713 -0.0234,0.03048 -0.0586,0.05163 -0.0821,0.08208 -0.26224,0.339723 -0.53428,0.703399 -0.82089,1.039781 -0.0344,0.04021 -0.0748,0.06929 -0.10945,0.109451 -0.36651,0.425438 -0.7443,0.838822 -1.14923,1.258681 -0.38995,0.404312 -0.80636,0.805025 -1.23133,1.203957 -0.43171,0.404689 -0.8736,0.805021 -1.34077,1.203956 -0.43659,0.373292 -0.87371,0.753785 -1.34076,1.121868 -0.0361,0.02853 -0.0729,0.05361 -0.10945,0.08208 -0.37039,0.290189 -0.76018,0.588766 -1.14924,0.875606 -0.0635,0.04678 -0.12753,0.09012 -0.19154,0.136814 -0.36638,0.26757 -0.73944,0.528954 -1.12186,0.793514 -0.2533,0.175147 -0.50589,0.34609 -0.76616,0.519891 -0.57166,0.382064 -1.14639,0.746454 -1.7512,1.121869 -0.39748,0.24671 -0.81976,0.495028 -1.23133,0.738791 -0.68587,0.406227 -1.38258,0.80614 -2.10691,1.203955 -0.011,0.0061 -0.0165,0.02132 -0.0273,0.02736 -0.96774,0.53089 -1.97539,1.044356 -3.0099,1.559669 -0.29062,0.144717 -0.57981,0.294349 -0.87559,0.437803 -0.47307,0.229543 -0.96408,0.457804 -1.45024,0.684066 -1.17717,0.547874 -2.3872,1.086366 -3.63922,1.614396 -0.10973,0.04629 -0.21804,0.09067 -0.32836,0.136813 -0.72906,0.304877 -1.46293,0.605002 -2.21637,0.902966 -0.0715,0.02826 -0.14719,0.05389 -0.21889,0.08208 -0.76376,0.300313 -1.53778,0.582534 -2.32582,0.875604 -0.8419,0.313271 -1.70307,0.625538 -2.57211,0.930331 -2.60908,0.915069 -5.33899,1.791941 -8.18141,2.626812 -0.94783,0.278245 -1.90064,0.551968 -2.87308,0.82088 -0.0928,0.02569 -0.18054,0.05648 -0.27363,0.08208 -0.88378,0.243016 -1.77806,0.476263 -2.68154,0.711427 -1.99811,0.5205 -4.03825,1.024122 -6.12924,1.504945 -20.56258,4.728387 -45.47643,7.497364 -72.34681,7.497364 -26.87273,0 -51.78322,-2.768229 -72.346827,-7.497364 -1.04233,-0.239657 -2.072411,-0.489172 -3.091981,-0.73879 -1.024273,-0.250897 -2.036604,-0.505413 -3.037254,-0.766155 -0.911069,-0.237212 -1.790544,-0.466229 -2.681539,-0.711427 -0.08498,-0.02337 -0.161468,-0.05864 -0.246262,-0.08208 -0.972151,-0.268912 -1.952951,-0.542635 -2.900441,-0.82088 -0.943957,-0.277356 -1.872148,-0.561829 -2.79099,-0.848241 -0.922196,-0.287363 -1.839992,-0.579329 -2.736264,-0.875604 -0.811944,-0.26845 -1.590376,-0.545281 -2.380549,-0.82088 -0.171613,-0.05981 -0.349316,-0.104024 -0.51989,-0.164175 -0.785019,-0.277011 -1.56313,-0.56428 -2.325825,-0.848243 -0.862278,-0.320815 -1.684236,-0.628207 -2.517362,-0.957692 -0.753438,-0.297964 -1.487302,-0.59809 -2.216375,-0.902967 -0.1473,-0.06159 -0.291508,-0.129683 -0.437802,-0.191538 -0.680089,-0.287663 -1.366759,-0.582016 -2.024835,-0.875606 -1.018649,-0.454294 -1.990517,-0.900058 -2.955165,-1.36813 -0.294227,-0.142764 -0.586495,-0.293789 -0.875604,-0.437804 -1.033868,-0.515078 -2.042759,-1.029023 -3.009892,-1.559669 -0.01115,-0.0061 -0.01622,-0.02125 -0.02736,-0.02736 -0.722429,-0.396828 -1.422778,-0.798753 -2.106925,-1.203955 -0.411565,-0.243762 -0.833844,-0.49208 -1.231318,-0.738791 -0.601914,-0.373607 -1.182135,-0.741677 -1.751208,-1.121869 -0.568687,-0.379933 -1.133864,-0.762931 -1.669122,-1.149229 -0.538209,-0.38843 -1.055897,-0.781943 -1.55967,-1.176596 -0.03636,-0.0285 -0.07327,-0.05358 -0.109451,-0.08208 -0.467057,-0.368083 -0.904179,-0.748576 -1.340769,-1.121868 -0.321417,-0.274664 -0.625657,-0.543472 -0.930331,-0.82088 -0.142082,-0.12935 -0.272028,-0.253141 -0.410438,-0.383076 -0.424959,-0.398932 -0.84138,-0.799646 -1.231319,-1.203957 -0.76222,-0.790309 -1.481924,-1.598186 -2.106926,-2.407913 -0.02061,-0.02671 -0.03425,-0.05534 -0.05473,-0.08208 -0.327125,-0.42728 -0.614993,-0.853698 -0.902966,-1.286044 -0.283007,-0.424889 -0.54896,-0.856473 -0.793517,-1.286044 -0.245525,-0.431266 -0.477932,-0.850273 -0.684067,-1.286044 -0.205409,-0.434237 -0.381586,-0.874905 -0.547253,-1.313406 -0.12845,-0.340293 -0.251537,-0.669665 -0.355714,-1.012417 -0.03064,-0.100569 -0.05356,-0.200218 -0.08208,-0.300989 -0.11353,-0.400957 -0.221095,-0.799841 -0.30099,-1.203957 -0.02684,-0.135708 -0.03172,-0.274387 -0.05473,-0.41044 -0.0384,-0.226837 -0.08175,-0.456294 -0.109451,-0.684066 -0.0188,-0.155407 -0.04094,-0.309329 -0.05473,-0.465167 -0.03826,-0.42828 -0.05473,-0.85467 -0.05473,-1.286042 z"
             style="color:#000000;fill:url(#radialGradient4039);fill-opacity:1;fill-rule:nonzero;stroke:url(#radialGradient4041);stroke-width:4.84325218;stroke-linecap:round;stroke-linejoin:round;stroke-miterlimit:4;stroke-dasharray:none;marker:none;visibility:visible;display:inline;overflow:visible;enable-background:accumulate" />
          <path
             inkscape:connector-curvature="0"
             style="color:#000000;fill:url(#radialGradient4043);fill-opacity:1;fill-rule:nonzero;stroke:url(#radialGradient4045);stroke-width:4.84325218;stroke-linecap:round;stroke-linejoin:round;stroke-miterlimit:4;stroke-opacity:1;stroke-dasharray:none;stroke-dashoffset:0;marker:none;visibility:visible;display:inline;overflow:visible;enable-background:accumulate"
             d="m 25.758881,173.21272 0,70.04839 c 0,23.48832 57.099712,42.52156 127.564689,42.52156 70.46498,0 127.59206,-19.03324 127.59206,-42.52156 l 0,-70.04839 c 0,0.43137 -0.0165,0.85775 -0.0546,1.28604 -0.0139,0.15472 -0.036,0.31087 -0.0547,0.46517 -0.0279,0.22996 -0.0706,0.45506 -0.10944,0.68406 -0.0229,0.13475 -0.0282,0.27602 -0.0547,0.41043 -0.0799,0.40412 -0.18746,0.80301 -0.30099,1.20396 -0.12536,0.44317 -0.27193,0.87432 -0.4378,1.31341 -0.16543,0.43785 -0.3422,0.87981 -0.54726,1.31341 -0.135,0.28548 -0.28584,0.56467 -0.4378,0.84824 -0.0798,0.14889 -0.1618,0.28946 -0.24627,0.43781 -0.24567,0.4319 -0.50899,0.85886 -0.79352,1.28604 -0.20722,0.31112 -0.42914,0.62181 -0.65669,0.93033 -0.0856,0.11614 -0.15776,0.23995 -0.24626,0.35572 -0.0233,0.0304 -0.0586,0.0516 -0.082,0.082 -0.26222,0.33972 -0.53428,0.70341 -0.82088,1.03978 -0.0344,0.0402 -0.0748,0.0693 -0.10945,0.10946 -0.36651,0.42543 -0.7443,0.83881 -1.14924,1.25867 -0.38994,0.40431 -0.80635,0.80502 -1.23132,1.20396 -0.43171,0.40469 -0.8736,0.80503 -1.34076,1.20396 -0.43659,0.37329 -0.87372,0.75378 -1.34077,1.12187 -0.0362,0.0285 -0.073,0.0536 -0.10946,0.082 -0.37039,0.2902 -0.76017,0.58877 -1.14923,0.87561 -0.0635,0.0468 -0.12754,0.0901 -0.19154,0.13681 -0.36639,0.26757 -0.73943,0.52896 -1.12186,0.79351 -0.25331,0.17516 -0.5059,0.3461 -0.76616,0.5199 -0.57166,0.38206 -1.14639,0.74645 -1.75121,1.12187 -0.39747,0.24671 -0.81976,0.49503 -1.23132,0.73879 -0.68587,0.40622 -1.38259,0.80614 -2.10692,1.20396 -0.011,0.007 -0.0164,0.0212 -0.0274,0.0274 -0.96774,0.53088 -1.97538,1.04435 -3.0099,1.55966 -0.29061,0.14472 -0.5798,0.29436 -0.87559,0.4378 -0.47308,0.22954 -0.96408,0.45781 -1.45023,0.68406 -1.17717,0.54788 -2.38721,1.08637 -3.63923,1.61441 -0.10974,0.0463 -0.21804,0.0907 -0.32835,0.13681 -0.72907,0.30488 -1.46294,0.60501 -2.21637,0.90296 -0.0715,0.0283 -0.1472,0.0539 -0.2189,0.0821 -0.76376,0.30031 -1.53779,0.58253 -2.32583,0.8756 -0.84189,0.31327 -1.70305,0.62554 -2.5721,0.93033 -2.60908,0.91507 -5.33901,1.79195 -8.18142,2.62682 -0.94782,0.27823 -1.90063,0.55195 -2.87309,0.82087 -0.0929,0.0257 -0.18053,0.0565 -0.27362,0.082 -0.88376,0.243 -1.77806,0.47626 -2.68154,0.71142 -1.9981,0.5205 -4.03825,1.02413 -6.12923,1.50494 -20.5626,4.7284 -45.47646,7.49737 -72.34685,7.49737 -26.87275,0 -51.78325,-2.76823 -72.346866,-7.49737 -1.042332,-0.23966 -2.072408,-0.48917 -3.09198,-0.73878 -1.024272,-0.2509 -2.036604,-0.50541 -3.037253,-0.76616 -0.91107,-0.23721 -1.790547,-0.46624 -2.681541,-0.71142 -0.08498,-0.0234 -0.161468,-0.0587 -0.246264,-0.082 -0.97215,-0.26892 -1.952951,-0.54264 -2.900441,-0.82087 -0.943958,-0.27736 -1.872148,-0.56184 -2.790992,-0.84825 -0.922197,-0.28737 -1.839992,-0.57932 -2.736264,-0.8756 -0.811946,-0.26845 -1.590378,-0.54528 -2.380552,-0.82088 -0.171613,-0.0598 -0.349315,-0.10402 -0.51989,-0.16418 -0.78502,-0.27702 -1.56313,-0.56428 -2.325825,-0.84824 -0.86228,-0.32081 -1.684238,-0.62821 -2.517365,-0.95768 -0.753436,-0.29797 -1.487301,-0.59811 -2.216374,-0.90298 -0.1473,-0.0616 -0.29151,-0.12968 -0.437802,-0.19154 -0.68009,-0.28766 -1.36676,-0.58202 -2.024837,-0.8756 -1.018649,-0.45431 -1.990518,-0.90006 -2.955167,-1.36815 -0.294227,-0.14275 -0.586495,-0.29378 -0.875605,-0.43779 -1.033867,-0.51508 -2.042758,-1.02901 -3.009891,-1.55967 -0.01116,-0.007 -0.01622,-0.0212 -0.02736,-0.0274 -0.72243,-0.39683 -1.422781,-0.79875 -2.106925,-1.20396 -0.411566,-0.24375 -0.833844,-0.49207 -1.231319,-0.73879 -0.601915,-0.37361 -1.182137,-0.74167 -1.75121,-1.12186 -0.568687,-0.37994 -1.133863,-0.76293 -1.669121,-1.14924 -0.538211,-0.38842 -1.055899,-0.78194 -1.559672,-1.17659 -0.03637,-0.0285 -0.07327,-0.0536 -0.109451,-0.082 -0.467057,-0.3681 -0.904179,-0.74857 -1.340769,-1.12187 -0.321418,-0.27467 -0.625658,-0.54347 -0.930331,-0.82088 -0.142083,-0.12935 -0.272028,-0.25315 -0.41044,-0.38308 -0.424957,-0.39894 -0.84138,-0.79964 -1.231318,-1.20395 -0.76222,-0.79032 -1.481925,-1.5982 -2.106926,-2.40792 -0.02062,-0.0267 -0.03425,-0.0553 -0.05472,-0.0821 -0.327126,-0.42727 -0.614994,-0.8537 -0.902967,-1.28604 -0.283009,-0.42489 -0.54896,-0.85647 -0.793518,-1.28605 -0.245524,-0.43127 -0.477931,-0.85027 -0.684066,-1.28604 -0.20541,-0.43424 -0.381586,-0.87491 -0.547253,-1.31341 -0.12845,-0.34029 -0.251539,-0.66965 -0.355715,-1.01241 -0.03064,-0.10058 -0.05356,-0.20022 -0.08208,-0.301 -0.113528,-0.40095 -0.221093,-0.79983 -0.300989,-1.20395 -0.02684,-0.13571 -0.03172,-0.27439 -0.05472,-0.41044 -0.03841,-0.22684 -0.08175,-0.45629 -0.10945,-0.68407 -0.01879,-0.15541 -0.04096,-0.30933 -0.05472,-0.46516 -0.03826,-0.42829 -0.05472,-0.85468 -0.05472,-1.28605 z"
             id="path3068" />
        </g>
      </g>
    </g>
  </g>
</svg>
